Coordinates
version=1
nRows=22
nColumns=24
inDegrees=yes

Units are S.I. units (second, meters, Newtons, ...)
Angles are in degrees.

endheader
time	pelvis_tilt	pelvis_list	pelvis_rotation	pelvis_tx	pelvis_ty	pelvis_tz	hip_flexion_r	hip_adduction_r	hip_rotation_r	knee_angle_r	ankle_angle_r	subtalar_angle_r	mtp_angle_r	hip_flexion_l	hip_adduction_l	hip_rotation_l	knee_angle_l	ankle_angle_l	subtalar_angle_l	mtp_angle_l	lumbar_extension	lumbar_bending	lumbar_rotation
      3.36000000	     54.53328752	     -3.77067149	    -15.27264607	      0.43018972	      1.03240923	     -0.33820504	     26.52023498	     -4.18124301	     24.44636690	    -45.02980800	      5.59222965	     47.91689650	      0.00000000	      7.45586168	    -19.80629709	    -12.29454001	    -62.64635350	     24.29174111	     27.01764523	      0.00000000	      0.00000000	      0.00000000	      0.00000000
      3.37000000	     54.54188858	     -3.79625741	    -15.26902973	      0.43022480	      1.03246126	     -0.33825490	     26.49081913	     -4.14392899	     24.40419661	    -45.06635904	      5.61430975	     47.90156623	      0.00000000	      7.44150360	    -19.82678905	    -12.29439098	    -62.66130709	     24.29345874	     27.01943648	      0.00000000	      0.00000000	      0.00000000	      0.00000000
      3.38000000	     54.54253261	     -3.81619334	    -15.26180085	      0.43020693	      1.03253153	     -0.33826464	     26.46786645	     -4.10639092	     24.36095277	    -45.09935998	      5.63234113	     47.87887032	      0.00000000	      7.43652800	    -19.84498683	    -12.29135210	    -62.66748214	     24.29095099	     27.02162017	      0.00000000	      0.00000000	      0.00000000	      0.00000000
      3.39000000	     54.53395546	     -3.82691689	    -15.25198252	      0.43014557	      1.03259423	     -0.33823590	     26.45709274	     -4.07049835	     24.31834691	    -45.13323081	      5.64786329	     47.85132920	      0.00000000	      7.44181358	    -19.85836482	    -12.28722738	    -62.66509893	     24.28629899	     27.02442111	      0.00000000	      0.00000000	      0.00000000	      0.00000000
      3.40000000	     54.51844367	     -3.82922136	    -15.24201921	      0.43007637	      1.03262761	     -0.33819655	     26.45990154	     -4.03802644	     24.27754099	    -45.17360083	      5.66318417	     47.82193762	      0.00000000	      7.45442112	    -19.86591065	    -12.28391306	    -62.65875139	     24.28181383	     27.02772050	      0.00000000	      0.00000000	      0.00000000	      0.00000000
      3.41000000	     54.50116008	     -3.82686923	    -15.23493868	      0.43003882	      1.03263159	     -0.33817770	     26.47320304	     -4.01026062	     24.23888393	    -45.22567587	      5.68052662	     47.79342963	      0.00000000	      7.46930821	    -19.86805799	    -12.28250701	    -62.65535633	     24.27929574	     27.03109201	      0.00000000	      0.00000000	      0.00000000	      0.00000000
      3.42000000	     54.48769297	     -3.82377834	    -15.23265917	      0.43004746	      1.03262177	     -0.33819442	     26.49109206	     -3.98761896	     24.20202820	    -45.29217151	      5.70124934	     47.76779480	      0.00000000	      7.48133491	    -19.86596555	    -12.28297116	    -62.66048811	     24.27950738	     27.03395082	      0.00000000	      0.00000000	      0.00000000	      0.00000000
      3.43000000	     54.48152462	     -3.82192684	    -15.23479068	      0.43009836	      1.03260957	     -0.33824229	     26.50754964	     -3.96958728	     24.16635936	    -45.37179268	      5.72540990	     47.74612791	      0.00000000	      7.48709908	    -19.86069820	    -12.28436071	    -62.67523244	     24.28205172	     27.03572524	      0.00000000	      0.00000000	      0.00000000	      0.00000000
      3.44000000	     54.48281963	     -3.82084838	    -15.23890804	      0.43017826	      1.03259705	     -0.33830322	     26.51866229	     -3.95504975	     24.13146127	    -45.45928767	      5.75179235	     47.72874998	      0.00000000	      7.48623861	    -19.85291257	    -12.28534907	    -62.69557345	     24.28565538	     27.03596502	      0.00000000	      0.00000000	      0.00000000	      0.00000000
      3.45000000	     54.48869552	     -3.81858782	    -15.24200560	      0.43024700	      1.03258966	     -0.33835279	     26.52340730	     -3.94288440	     24.09737950	    -45.54737250	      5.77835260	     47.71545862	      0.00000000	      7.48140991	    -19.84309708	    -12.28478004	    -62.71482935	     24.28870360	     27.03437126	      0.00000000	      0.00000000	      0.00000000	      0.00000000
      3.46000000	     54.49497525	     -3.81365784	    -15.24223612	      0.43025823	      1.03260030	     -0.33837342	     26.52311715	     -3.93248414	     24.06461834	    -45.62970647	      5.80289817	     47.70575980	      0.00000000	      7.47682352	    -19.83194478	    -12.28205115	    -62.72763225	     24.28981739	     27.03079546	      0.00000000	      0.00000000	      0.00000000	      0.00000000
      3.47000000	     54.49851209	     -3.80660638	    -15.23974438	      0.43021649	      1.03263094	     -0.33836888	     26.52018606	     -3.92377262	     24.03388754	    -45.70348663	      5.82376071	     47.69898378	      0.00000000	      7.47610407	    -19.82045517	    -12.27728787	    -62.73291466	     24.28828368	     27.02526386	      0.00000000	      0.00000000	      0.00000000	      0.00000000
      3.48000000	     54.49852283	     -3.79960424	    -15.23606499	      0.43016663	      1.03266708	     -0.33835802	     26.51667644	     -3.91667011	     24.00571430	    -45.77036553	      5.84025008	     47.69428011	      0.00000000	      7.48061592	    -19.80973930	    -12.27124052	    -62.73404340	     24.28422859	     27.01803792	      0.00000000	      0.00000000	      0.00000000	      0.00000000
      3.49000000	     54.49648978	     -3.79459412	    -15.23289718	      0.43013359	      1.03269960	     -0.33835461	     26.51360541	     -3.91063917	     23.98021899	    -45.83517224	      5.85276207	     47.69058077	      0.00000000	      7.48903628	    -19.80077499	    -12.26483113	    -62.73620015	     24.27851768	     27.00966278	      0.00000000	      0.00000000	      0.00000000	      0.00000000
      3.50000000	     54.49501958	     -3.79217946	    -15.23113486	      0.43011484	      1.03272738	     -0.33836102	     26.51115985	     -3.90494180	     23.95729367	    -45.90319889	      5.86251251	     47.68666584	      0.00000000	      7.49811796	    -19.79416965	    -12.25868004	    -62.74297395	     24.27243898	     27.00093859	      0.00000000	      0.00000000	      0.00000000	      0.00000000
      3.51000000	     54.49633100	     -3.79187427	    -15.23059969	      0.43011024	      1.03274246	     -0.33837600	     26.50916815	     -3.89932602	     23.93697313	    -45.97771045	      5.87099221	     47.68141896	      0.00000000	      7.50444535	    -19.78991864	    -12.25300025	    -62.75436041	     24.26727831	     26.99278797	      0.00000000	      0.00000000	      0.00000000	      0.00000000
      3.52000000	     54.50104432	     -3.79259833	    -15.23049623	      0.43012679	      1.03273588	     -0.33839839	     26.50732180	     -3.89430918	     23.91956322	    -46.05887585	      5.87936641	     47.67420891	      0.00000000	      7.50643378	    -19.78732798	    -12.24781709	    -62.76705558	     24.26391783	     26.98606088	      0.00000000	      0.00000000	      0.00000000	      0.00000000
      3.53000000	     54.50764648	     -3.79289401	    -15.22997369	      0.43015827	      1.03271185	     -0.33842011	     26.50548688	     -3.89081308	     23.90545577	    -46.14417049	      5.88808813	     47.66518867	      0.00000000	      7.50507287	    -19.78521210	    -12.24322185	    -62.77647752	     24.26258978	     26.98135796	      0.00000000	      0.00000000	      0.00000000	      0.00000000
      3.54000000	     54.51320187	     -3.79125024	    -15.22849443	      0.43017489	      1.03268891	     -0.33842430	     26.50426836	     -3.88963505	     23.89490708	    -46.22974006	      5.89688955	     47.65531287	      0.00000000	      7.50306438	    -19.78239194	    -12.23940098	    -62.77919845	     24.26287222	     26.97893684	      0.00000000	      0.00000000	      0.00000000	      0.00000000
      3.55000000	     54.51509921	     -3.78681749	    -15.22620314	      0.43015698	      1.03268294	     -0.33840460	     26.50512960	     -3.89125498	     23.88798478	    -46.31220080	      5.90511330	     47.64602614	      0.00000000	      7.50329154	    -19.77829712	    -12.23643535	    -62.77449970	     24.26392315	     26.97871949	      0.00000000	      0.00000000	      0.00000000	      0.00000000
      3.56000000	     54.51229444	     -3.78004247	    -15.22394237	      0.43012839	      1.03269039	     -0.33837695	     26.50957630	     -3.89596590	     23.88466217	    -46.39013640	      5.91218770	     47.63874096	      0.00000000	      7.50744549	    -19.77312603	    -12.23416345	    -62.76436946	     24.26486162	     26.98037803	      0.00000000	      0.00000000	      0.00000000	      0.00000000
      3.57000000	     54.50534297	     -3.77235081	    -15.22258833	      0.43012239	      1.03269863	     -0.33836026	     26.51798413	     -3.90389753	     23.88489937	    -46.46441220	      5.91802931	     47.63432737	      0.00000000	      7.51531243	    -19.76747417	    -12.23228396	    -62.75211632	     24.26513384	     26.98345717	      0.00000000	      0.00000000	      0.00000000	      0.00000000
